<svg width="512" height="512" viewBox="0 0 512 512" fill="none" xmlns="http://www.w3.org/2000/svg">
    <circle cx="256" cy="256" r="256" fill="#100F0F"/>
    <path d="M119.106 152.315C119.309 151.546 119.41 151.162 119.624 150.863C119.798 150.62 120.024 150.42 120.285 150.276C120.608 150.098 121.001 150.043 121.788 149.932L207.501 137.886C209.149 137.655 209.972 137.539 210.534 137.824C210.983 138.053 211.33 138.443 211.504 138.917C211.721 139.508 211.509 140.312 211.085 141.92L193.151 209.942C192.948 210.711 192.847 211.095 192.633 211.394C192.459 211.637 192.233 211.837 191.972 211.981C191.649 212.159 191.256 212.214 190.469 212.325L104.756 224.371C103.108 224.602 102.285 224.718 101.723 224.433C101.274 224.204 100.927 223.814 100.753 223.34C100.536 222.749 100.748 221.945 101.172 220.336L119.106 152.315Z" fill="url(#paint0_linear_0_1)"/>
    <path d="M249.547 133.371C249.779 132.488 250.451 131.85 251.273 131.734L418.03 108.298C419.616 108.075 420.904 109.813 420.4 111.495L379.449 248.318C378.743 250.675 375.644 250.284 375.294 247.793L366.743 186.946C366.558 185.634 365.461 184.704 364.291 184.869L301.554 193.686C300.736 193.801 300.065 194.434 299.831 195.312L261.248 339.97C261.065 340.659 261.174 341.413 261.544 342.022L301.823 408.122C302.725 409.603 301.958 411.58 300.395 411.8L175.245 429.388C173.694 429.606 172.415 427.943 172.852 426.276L249.547 133.371Z" fill="url(#paint1_linear_0_1)"/>
    <defs>
        <linearGradient id="paint0_linear_0_1" x1="423.878" y1="86.2865" x2="86.7536" y2="391.396" gradientUnits="userSpaceOnUse">
            <stop offset="0.215" stop-color="#C62368"/>
            <stop offset="0.83" stop-color="#FA7268"/>
        </linearGradient>
        <linearGradient id="paint1_linear_0_1" x1="423.878" y1="86.2865" x2="86.7536" y2="391.396" gradientUnits="userSpaceOnUse">
            <stop offset="0.215" stop-color="#C62368"/>
            <stop offset="0.83" stop-color="#FA7268"/>
        </linearGradient>
    </defs>
</svg>
