<svg id="visual" viewBox="0 0 900 128" width="900" height="128" xmlns="http://www.w3.org/2000/svg" xmlns:xlink="http://www.w3.org/1999/xlink" version="1.1"><path d="M0 20L10 30.5C20 41 40 62 60 70.8C80 79.7 100 76.3 120 67C140 57.7 160 42.3 180 41.2C200 40 220 53 240 53.7C260 54.3 280 42.7 300 43.3C320 44 340 57 360 59.3C380 61.7 400 53.3 420 50.8C440 48.3 460 51.7 480 58C500 64.3 520 73.7 540 75.2C560 76.7 580 70.3 600 58.3C620 46.3 640 28.7 660 32.7C680 36.7 700 62.3 720 64.8C740 67.3 760 46.7 780 46.3C800 46 820 66 840 68.8C860 71.7 880 57.3 890 50.2L900 43L900 129L890 129C880 129 860 129 840 129C820 129 800 129 780 129C760 129 740 129 720 129C700 129 680 129 660 129C640 129 620 129 600 129C580 129 560 129 540 129C520 129 500 129 480 129C460 129 440 129 420 129C400 129 380 129 360 129C340 129 320 129 300 129C280 129 260 129 240 129C220 129 200 129 180 129C160 129 140 129 120 129C100 129 80 129 60 129C40 129 20 129 10 129L0 129Z" fill="#fa7268"></path><path d="M0 46L10 45.7C20 45.3 40 44.7 60 46.3C80 48 100 52 120 60.8C140 69.7 160 83.3 180 88.7C200 94 220 91 240 84.3C260 77.7 280 67.3 300 60C320 52.7 340 48.3 360 51.8C380 55.3 400 66.7 420 69.5C440 72.3 460 66.7 480 64.3C500 62 520 63 540 58.2C560 53.3 580 42.7 600 42.2C620 41.7 640 51.3 660 51.7C680 52 700 43 720 40.8C740 38.7 760 43.3 780 46.5C800 49.7 820 51.3 840 59.5C860 67.7 880 82.3 890 89.7L900 97L900 129L890 129C880 129 860 129 840 129C820 129 800 129 780 129C760 129 740 129 720 129C700 129 680 129 660 129C640 129 620 129 600 129C580 129 560 129 540 129C520 129 500 129 480 129C460 129 440 129 420 129C400 129 380 129 360 129C340 129 320 129 300 129C280 129 260 129 240 129C220 129 200 129 180 129C160 129 140 129 120 129C100 129 80 129 60 129C40 129 20 129 10 129L0 129Z" fill="#ef5f67"></path><path d="M0 95L10 88.7C20 82.3 40 69.7 60 69.8C80 70 100 83 120 83.5C140 84 160 72 180 71.3C200 70.7 220 81.3 240 88.8C260 96.3 280 100.7 300 95C320 89.3 340 73.7 360 71C380 68.3 400 78.7 420 83.8C440 89 460 89 480 87.3C500 85.7 520 82.3 540 82.2C560 82 580 85 600 82.8C620 80.7 640 73.3 660 71.2C680 69 700 72 720 72.8C740 73.7 760 72.3 780 72.7C800 73 820 75 840 74.3C860 73.7 880 70.3 890 68.7L900 67L900 129L890 129C880 129 860 129 840 129C820 129 800 129 780 129C760 129 740 129 720 129C700 129 680 129 660 129C640 129 620 129 600 129C580 129 560 129 540 129C520 129 500 129 480 129C460 129 440 129 420 129C400 129 380 129 360 129C340 129 320 129 300 129C280 129 260 129 240 129C220 129 200 129 180 129C160 129 140 129 120 129C100 129 80 129 60 129C40 129 20 129 10 129L0 129Z" fill="#e34c67"></path><path d="M0 74L10 78.3C20 82.7 40 91.3 60 96.8C80 102.3 100 104.7 120 100.7C140 96.7 160 86.3 180 82.8C200 79.3 220 82.7 240 81.7C260 80.7 280 75.3 300 77.3C320 79.3 340 88.7 360 94C380 99.3 400 100.7 420 102.3C440 104 460 106 480 104.7C500 103.3 520 98.7 540 95.7C560 92.7 580 91.3 600 87.7C620 84 640 78 660 77.2C680 76.3 700 80.7 720 82C740 83.3 760 81.7 780 85.5C800 89.3 820 98.7 840 98C860 97.3 880 86.7 890 81.3L900 76L900 129L890 129C880 129 860 129 840 129C820 129 800 129 780 129C760 129 740 129 720 129C700 129 680 129 660 129C640 129 620 129 600 129C580 129 560 129 540 129C520 129 500 129 480 129C460 129 440 129 420 129C400 129 380 129 360 129C340 129 320 129 300 129C280 129 260 129 240 129C220 129 200 129 180 129C160 129 140 129 120 129C100 129 80 129 60 129C40 129 20 129 10 129L0 129Z" fill="#d53867"></path><path d="M0 103L10 101C20 99 40 95 60 93C80 91 100 91 120 94.2C140 97.3 160 103.7 180 107.2C200 110.7 220 111.3 240 111.8C260 112.3 280 112.7 300 111.7C320 110.7 340 108.3 360 105.8C380 103.3 400 100.7 420 101.2C440 101.7 460 105.3 480 108C500 110.7 520 112.3 540 111.5C560 110.7 580 107.3 600 103.5C620 99.7 640 95.3 660 94.8C680 94.3 700 97.7 720 97.3C740 97 760 93 780 95.8C800 98.7 820 108.3 840 110.3C860 112.3 880 106.7 890 103.8L900 101L900 129L890 129C880 129 860 129 840 129C820 129 800 129 780 129C760 129 740 129 720 129C700 129 680 129 660 129C640 129 620 129 600 129C580 129 560 129 540 129C520 129 500 129 480 129C460 129 440 129 420 129C400 129 380 129 360 129C340 129 320 129 300 129C280 129 260 129 240 129C220 129 200 129 180 129C160 129 140 129 120 129C100 129 80 129 60 129C40 129 20 129 10 129L0 129Z" fill="#c62368"></path></svg>