<svg width="900" height="128" viewBox="0 0 900 128" fill="none" xmlns="http://www.w3.org/2000/svg">
    <path d="M0 104L10 96.7C20 89.3 40 74.7 60 66.2C80 57.7 100 55.3 120 60.8C140 66.3 160 79.7 180 80C200 80.3 220 67.7 240 70.5C260 73.3 280 91.7 300 94.5C320 97.3 340 84.7 360 83.5C380 82.3 400 92.7 420 86.7C440 80.7 460 58.3 480 53C500 47.7 520 59.3 540 66.8C560 74.3 580 77.7 600 81.2C620 84.7 640 88.3 660 80.8C680 73.3 700 54.7 720 55.8C740 57 760 78 780 79.7C800 81.3 820 63.7 840 64C860 64.3 880 82.7 890 91.8L900 101V0H890C880 0 860 0 840 0C820 0 800 0 780 0C760 0 740 0 720 0C700 0 680 0 660 0C640 0 620 0 600 0C580 0 560 0 540 0C520 0 500 0 480 0C460 0 440 0 420 0C400 0 380 0 360 0C340 0 320 0 300 0C280 0 260 0 240 0C220 0 200 0 180 0C160 0 140 0 120 0C100 0 80 0 60 0C40 0 20 0 10 0H0V104Z" fill="#77B6FF"/>
    <path d="M0 28L10 37.3C20 46.7 40 65.3 60 65.5C80 65.7 100 47.3 120 49.3C140 51.3 160 73.7 180 74.5C200 75.3 220 54.7 240 53.7C260 52.7 280 71.3 300 81C320 90.7 340 91.3 360 86.5C380 81.7 400 71.3 420 71.2C440 71 460 81 480 83.3C500 85.7 520 80.3 540 78.2C560 76 580 77 600 76.2C620 75.3 640 72.7 660 68.2C680 63.7 700 57.3 720 59.7C740 62 760 73 780 80.7C800 88.3 820 92.7 840 86.3C860 80 880 63 890 54.5L900 46V0H890C880 0 860 0 840 0C820 0 800 0 780 0C760 0 740 0 720 0C700 0 680 0 660 0C640 0 620 0 600 0C580 0 560 0 540 0C520 0 500 0 480 0C460 0 440 0 420 0C400 0 380 0 360 0C340 0 320 0 300 0C280 0 260 0 240 0C220 0 200 0 180 0C160 0 140 0 120 0C100 0 80 0 60 0C40 0 20 0 10 0H0V28Z" fill="#4EA0DC"/>
    <path d="M0 49L10 45C20 41 40 33 60 30.7C80 28.3 100 31.7 120 31.2C140 30.7 160 26.3 180 31.7C200 37 220 52 240 52.3C260 52.7 280 38.3 300 31.5C320 24.7 340 25.3 360 26.2C380 27 400 28 420 36.3C440 44.7 460 60.3 480 67.2C500 74 520 72 540 67.5C560 63 580 56 600 49C620 42 640 35 660 34.3C680 33.7 700 39.3 720 41C740 42.7 760 40.3 780 42.5C800 44.7 820 51.3 840 56.8C860 62.3 880 66.7 890 68.8L900 71V0H890C880 0 860 0 840 0C820 0 800 0 780 0C760 0 740 0 720 0C700 0 680 0 660 0C640 0 620 0 600 0C580 0 560 0 540 0C520 0 500 0 480 0C460 0 440 0 420 0C400 0 380 0 360 0C340 0 320 0 300 0C280 0 260 0 240 0C220 0 200 0 180 0C160 0 140 0 120 0C100 0 80 0 60 0C40 0 20 0 10 0H0V49Z" fill="#2561FB"/>
    <path d="M0 55L10 52.3C20 49.7 40 44.3 60 41.2C80 38 100 37 120 33C140 29 160 22 180 24.2C200 26.3 220 37.7 240 40.3C260 43 280 37 300 32.8C320 28.7 340 26.3 360 26.2C380 26 400 28 420 30.8C440 33.7 460 37.3 480 39.7C500 42 520 43 540 39C560 35 580 26 600 22.3C620 18.7 640 20.3 660 20.2C680 20 700 18 720 16.5C740 15 760 14 780 19.7C800 25.3 820 37.7 840 37.3C860 37 880 24 890 17.5L900 11V0H890C880 0 860 0 840 0C820 0 800 0 780 0C760 0 740 0 720 0C700 0 680 0 660 0C640 0 620 0 600 0C580 0 560 0 540 0C520 0 500 0 480 0C460 0 440 0 420 0C400 0 380 0 360 0C340 0 320 0 300 0C280 0 260 0 240 0C220 0 200 0 180 0C160 0 140 0 120 0C100 0 80 0 60 0C40 0 20 0 10 0H0V55Z" fill="#0E52D6"/>
    <path d="M0 20L10 22C20 24 40 28 60 28.5C80 29 100 26 120 26.7C140 27.3 160 31.7 180 30C200 28.3 220 20.7 240 18.5C260 16.3 280 19.7 300 22.8C320 26 340 29 360 29.2C380 29.3 400 26.7 420 23.7C440 20.7 460 17.3 480 18C500 18.7 520 23.3 540 25C560 26.7 580 25.3 600 26.8C620 28.3 640 32.7 660 34.3C680 36 700 35 720 30.7C740 26.3 760 18.7 780 13.7C800 8.7 820 6.3 840 7.5C860 8.7 880 13.3 890 15.7L900 18V0H890C880 0 860 0 840 0C820 0 800 0 780 0C760 0 740 0 720 0C700 0 680 0 660 0C640 0 620 0 600 0C580 0 560 0 540 0C520 0 500 0 480 0C460 0 440 0 420 0C400 0 380 0 360 0C340 0 320 0 300 0C280 0 260 0 240 0C220 0 200 0 180 0C160 0 140 0 120 0C100 0 80 0 60 0C40 0 20 0 10 0H0V20Z" fill="#0834CF"/>
</svg>
